<svg xmlns="http://www.w3.org/2000/svg" viewBox="0 0 975.05 277.62"><defs><style>.cls-1{fill:#2cc66c;}.cls-2{fill:#0d3d42;}</style></defs><title>Aceveri-main-logo</title><g id="Layer_2" data-name="Layer 2"><g id="Layer_5" data-name="Layer 5"><path class="cls-1" d="M297,65.42q2.11,0,3.71,3l45.35,87.85a6,6,0,0,1,.71,2.65q0,3.72-4.61,3.72H324.31a6.41,6.41,0,0,1-6.37-3.89L297.21,115l-20.72,43.75a6.41,6.41,0,0,1-6.38,3.89H252.05q-4.61,0-4.61-3.72a6,6,0,0,1,.71-2.65l45.34-87.85Q294.91,65.43,297,65.42Z"/><path class="cls-1" d="M394,158.15a53.1,53.1,0,0,1-19.4-18.51,48.62,48.62,0,0,1-.17-50.84,51.78,51.78,0,0,1,19.48-18.6,53.27,53.27,0,0,1,26.39-6.73,54.27,54.27,0,0,1,25.51,6,53.2,53.2,0,0,1,19.3,17.35,5.31,5.31,0,0,1,1.06,2.84q0,2.84-3.54,4.25l-14,5.49a6.19,6.19,0,0,1-2.48.53c-1.66,0-3.19-.94-4.61-2.83q-8.32-10.45-21.25-10.45-11.52,0-19,7.79t-7.53,19.66a28.66,28.66,0,0,0,3.46,14.08,25.11,25.11,0,0,0,9.56,9.83,28.25,28.25,0,0,0,35.51-6.73,5.72,5.72,0,0,1,7.26-2.12l12.76,5q3.54,1.41,3.54,4.25a5.07,5.07,0,0,1-.89,2.65Q450.6,165,420.49,165A53.16,53.16,0,0,1,394,158.15Z"/><path class="cls-1" d="M520,159.83a49.41,49.41,0,0,1-20-15.94q-8.67-11.34-8.68-29.76,0-15,7-26.57a47.66,47.66,0,0,1,19-17.8,57.33,57.33,0,0,1,26.92-6.29,53.83,53.83,0,0,1,24.53,5.76,48.51,48.51,0,0,1,18.69,16.56,39.55,39.55,0,0,1,6.2,13.82,77.59,77.59,0,0,1,1.42,15.76,9.72,9.72,0,0,1-2,6.2,6.59,6.59,0,0,1-5.49,2.48h-70a19,19,0,0,0,9.75,13.46,34.48,34.48,0,0,0,16.82,4.25,32.53,32.53,0,0,0,12.4-2.12,29.76,29.76,0,0,0,9.21-6,6.83,6.83,0,0,1,4.25-2,5.68,5.68,0,0,1,3.19,1.06l11.51,6.73q2.83,1.59,2.84,3.9a6.13,6.13,0,0,1-1.42,3.36Q570,165,544.29,165A60.6,60.6,0,0,1,520,159.83ZM526.32,92a18.84,18.84,0,0,0-7.89,13.28h48.71a19.19,19.19,0,0,0-3.54-9,22.71,22.71,0,0,0-8-6.9,23.94,23.94,0,0,0-11.51-2.66Q533.3,86.68,526.32,92Z"/><path class="cls-2" d="M661.55,162.66q-2.13,0-3.72-3L612.48,71.8a6,6,0,0,1-.7-2.66q0-3.72,4.6-3.72h17.89a6.41,6.41,0,0,1,6.38,3.9l20.72,43.75,20.72-43.75a6.41,6.41,0,0,1,6.38-3.9h18.07c3.06,0,4.6,1.24,4.6,3.72a6,6,0,0,1-.71,2.66l-45.34,87.85Q663.67,162.67,661.55,162.66Z"/><path class="cls-2" d="M756.66,159.83a49.41,49.41,0,0,1-20-15.94Q728,132.55,728,114.13q0-15,7-26.57a47.66,47.66,0,0,1,19-17.8,57.3,57.3,0,0,1,26.92-6.29,53.9,53.9,0,0,1,24.54,5.76,48.55,48.55,0,0,1,18.68,16.56,39.55,39.55,0,0,1,6.2,13.82,76.88,76.88,0,0,1,1.42,15.76,9.72,9.72,0,0,1-2,6.2,6.59,6.59,0,0,1-5.49,2.48h-70a19,19,0,0,0,9.75,13.46,34.48,34.48,0,0,0,16.82,4.25,32.53,32.53,0,0,0,12.4-2.12,29.64,29.64,0,0,0,9.21-6,6.85,6.85,0,0,1,4.25-2,5.68,5.68,0,0,1,3.19,1.06l11.52,6.73c1.88,1.06,2.83,2.36,2.83,3.9a6.13,6.13,0,0,1-1.42,3.36Q806.61,165,780.92,165A60.6,60.6,0,0,1,756.66,159.83ZM763,92a18.84,18.84,0,0,0-7.89,13.28h48.71a19.09,19.09,0,0,0-3.54-9,22.71,22.71,0,0,0-8-6.9,23.94,23.94,0,0,0-11.51-2.66Q769.94,86.68,763,92Z"/><path class="cls-2" d="M920,64.72a5.48,5.48,0,0,1,1.42,4.07v15q0,4.78-5.31,5.32a34.8,34.8,0,0,0-11.34,2.74,29.93,29.93,0,0,0-10.27,7.35q-6.37,6.91-6.38,20.2v37.72a4.9,4.9,0,0,1-5.31,5.32H867a4.91,4.91,0,0,1-5.32-5.32V70.38A4.91,4.91,0,0,1,867,65.07h15.76a4.9,4.9,0,0,1,5.31,5.31V78a34.07,34.07,0,0,1,12.58-10.27,45,45,0,0,1,15.41-4.26A4.75,4.75,0,0,1,920,64.72Z"/><path class="cls-2" d="M970.8,50.63a14.15,14.15,0,0,1-10.28,4.17A14.63,14.63,0,0,1,950,50.63a13.52,13.52,0,0,1-4.34-10.18,13.36,13.36,0,0,1,4.34-10,14.66,14.66,0,0,1,10.53-4.16,14.18,14.18,0,0,1,10.28,4.16,13.53,13.53,0,0,1,4.25,10A13.69,13.69,0,0,1,970.8,50.63ZM948.66,161.07a5.25,5.25,0,0,1-1.42-3.9V70.56a4.9,4.9,0,0,1,5.32-5.31h15.93a4.9,4.9,0,0,1,5.32,5.31v86.61a4.91,4.91,0,0,1-5.32,5.32H952.56A5.24,5.24,0,0,1,948.66,161.07Z"/><path class="cls-2" d="M203.85,114.64l-.08-.33L194.21,122c.22,1.22.42,2.45.59,3.7A92.36,92.36,0,0,1,108.88,231c-1.83.12-3.68.18-5.53.18A92.24,92.24,0,0,1,32,197.43L10.59,184l13.64,21.2a103.17,103.17,0,0,0,75.6,36.86c1.16.06,2.34.07,3.52.07a103.4,103.4,0,0,0,100.5-127.51Zm-21.4-42.27a103.1,103.1,0,0,0-75.58-36.85c-1.16-.06-2.34-.07-3.52-.07A103.41,103.41,0,0,0,2.85,163l.08.32,9.56-7.72c-.22-1.22-.42-2.45-.59-3.69A92.37,92.37,0,0,1,97.84,46.6c1.82-.12,3.66-.18,5.51-.18a92.24,92.24,0,0,1,71.34,33.75l21.42,13.42Z"/><path class="cls-1" d="M203.85,114.64l-9,11.09L108.88,231l-9,11.08-29,35.54-46.6-72.4L10.59,184,32,197.43l38.82,24.3L194.21,122l9.56-7.72Z"/><path class="cls-1" d="M196.11,93.59,174.69,80.17l-38.82-24.3L12.49,155.57l-9.56,7.72L2.85,163l9.05-11.09L97.84,46.6l9-11.08L135.87,0l46.58,72.37Z"/><path class="cls-2" d="M661.55,162.66q-2.13,0-3.72-3L612.48,71.8a6,6,0,0,1-.7-2.66q0-3.72,4.6-3.72h17.89a6.41,6.41,0,0,1,6.38,3.9l20.72,43.75,20.72-43.75a6.41,6.41,0,0,1,6.38-3.9h18.07c3.06,0,4.6,1.24,4.6,3.72a6,6,0,0,1-.71,2.66l-45.34,87.85Q663.67,162.67,661.55,162.66Z"/><path class="cls-2" d="M756.66,159.83a49.41,49.41,0,0,1-20-15.94Q728,132.55,728,114.13q0-15,7-26.57a47.66,47.66,0,0,1,19-17.8,57.3,57.3,0,0,1,26.92-6.29,53.9,53.9,0,0,1,24.54,5.76,48.55,48.55,0,0,1,18.68,16.56,39.55,39.55,0,0,1,6.2,13.82,76.88,76.88,0,0,1,1.42,15.76,9.72,9.72,0,0,1-2,6.2,6.59,6.59,0,0,1-5.49,2.48h-70a19,19,0,0,0,9.75,13.46,34.48,34.48,0,0,0,16.82,4.25,32.53,32.53,0,0,0,12.4-2.12,29.64,29.64,0,0,0,9.21-6,6.85,6.85,0,0,1,4.25-2,5.68,5.68,0,0,1,3.19,1.06l11.52,6.73c1.88,1.06,2.83,2.36,2.83,3.9a6.13,6.13,0,0,1-1.42,3.36Q806.61,165,780.92,165A60.6,60.6,0,0,1,756.66,159.83ZM763,92a18.84,18.84,0,0,0-7.89,13.28h48.71a19.09,19.09,0,0,0-3.54-9,22.71,22.71,0,0,0-8-6.9,23.94,23.94,0,0,0-11.51-2.66Q769.94,86.68,763,92Z"/><path class="cls-2" d="M920,64.72a5.48,5.48,0,0,1,1.42,4.07v15q0,4.78-5.31,5.32a34.8,34.8,0,0,0-11.34,2.74,29.93,29.93,0,0,0-10.27,7.35q-6.37,6.91-6.38,20.2v37.72a4.9,4.9,0,0,1-5.31,5.32H867a4.91,4.91,0,0,1-5.32-5.32V70.38A4.91,4.91,0,0,1,867,65.07h15.76a4.9,4.9,0,0,1,5.31,5.31V78a34.07,34.07,0,0,1,12.58-10.27,45,45,0,0,1,15.41-4.26A4.75,4.75,0,0,1,920,64.72Z"/><path class="cls-2" d="M970.8,50.63a14.15,14.15,0,0,1-10.28,4.17A14.63,14.63,0,0,1,950,50.63a13.52,13.52,0,0,1-4.34-10.18,13.36,13.36,0,0,1,4.34-10,14.66,14.66,0,0,1,10.53-4.16,14.18,14.18,0,0,1,10.28,4.16,13.53,13.53,0,0,1,4.25,10A13.69,13.69,0,0,1,970.8,50.63ZM948.66,161.07a5.25,5.25,0,0,1-1.42-3.9V70.56a4.9,4.9,0,0,1,5.32-5.31h15.93a4.9,4.9,0,0,1,5.32,5.31v86.61a4.91,4.91,0,0,1-5.32,5.32H952.56A5.24,5.24,0,0,1,948.66,161.07Z"/><polygon class="cls-2" points="252.85 204.28 261.98 204.28 261.98 199.75 252.85 199.75 252.85 195.48 263.45 195.48 263.45 190.73 247.44 190.73 247.44 213.69 263.78 213.69 263.78 208.94 252.85 208.94 252.85 204.28"/><polygon class="cls-2" points="306.92 190.73 300.45 190.73 295.83 197.78 291.01 190.73 284.22 190.73 292.29 201.94 284.05 213.69 290.51 213.69 295.46 206.47 300.45 213.69 307.25 213.69 298.98 202.31 306.92 190.73"/><path class="cls-2" d="M342.23,191.71a7.55,7.55,0,0,0-3.85-1h-9.91v23h5.58V206h4.33a7.28,7.28,0,0,0,3.85-1,7.53,7.53,0,0,0,2.69-2.77,7.88,7.88,0,0,0,1-4,7.41,7.41,0,0,0-3.69-6.53Zm-2.38,8.07a2.66,2.66,0,0,1-1,1,2.46,2.46,0,0,1-1.31.36H334v-5.48h3.64a2.63,2.63,0,0,1,1.31.33,2.47,2.47,0,0,1,1,.92,2.7,2.7,0,0,1,.36,1.44A2.8,2.8,0,0,1,339.85,199.78Z"/><polygon class="cls-2" points="373.97 204.28 383.09 204.28 383.09 199.75 373.97 199.75 373.97 195.48 384.57 195.48 384.57 190.73 368.56 190.73 368.56 213.69 384.89 213.69 384.89 208.94 373.97 208.94 373.97 204.28"/><path class="cls-2" d="M422.42,204.64a7.34,7.34,0,0,0,2.79-2.71,7.48,7.48,0,0,0,1-3.89,7,7,0,0,0-1-3.75,7.12,7.12,0,0,0-2.8-2.61,8.43,8.43,0,0,0-4-1H408.09v23h5.31v-8.07h2.87l4.55,8.07h6.36L422,204.82C422.16,204.76,422.3,204.71,422.42,204.64Zm-9-9.25h4a4,4,0,0,1,1.78.36,2.6,2.6,0,0,1,1.14,1,3.06,3.06,0,0,1,.39,1.56,3.45,3.45,0,0,1-.34,1.57,2.5,2.5,0,0,1-1,1.07,2.87,2.87,0,0,1-1.49.38H413.4Z"/><polygon class="cls-2" points="447 195.65 453.82 195.65 453.82 213.69 459.39 213.69 459.39 195.65 466.38 195.65 466.38 190.73 447 190.73 447 195.65"/><path class="cls-2" d="M527.92,202.44c-.32.87-.6,1.62-.82,2.25s-.41,1.22-.59,1.8c0,0,0,.06,0,.09-.1-.32-.19-.64-.29-1s-.31-.91-.49-1.41l-.67-1.77-4.43-11.71H514.8l9.19,23h4.66l9.25-23h-5.71Z"/><polygon class="cls-2" points="564.7 204.28 573.82 204.28 573.82 199.75 564.7 199.75 564.7 195.48 575.29 195.48 575.29 190.73 559.28 190.73 559.28 213.69 575.62 213.69 575.62 208.94 564.7 208.94 564.7 204.28"/><path class="cls-2" d="M613.15,204.64a7.34,7.34,0,0,0,2.79-2.71,7.48,7.48,0,0,0,1-3.89,7,7,0,0,0-1-3.75,7.08,7.08,0,0,0-2.81-2.61,8.39,8.39,0,0,0-4-1H598.82v23h5.31v-8.07H607l4.54,8.07h6.37l-5.15-8.87C612.89,204.76,613,204.71,613.15,204.64Zm-9-9.25h4a4.05,4.05,0,0,1,1.79.36,2.57,2.57,0,0,1,1.13,1,3,3,0,0,1,.4,1.56,3.46,3.46,0,0,1-.35,1.57,2.48,2.48,0,0,1-1,1.07,2.92,2.92,0,0,1-1.49.38h-4.53Z"/><polygon class="cls-2" points="639.75 195.42 643.63 195.42 643.63 209 639.75 209 639.75 213.69 653.11 213.69 653.11 209 649.2 209 649.2 195.42 653.11 195.42 653.11 190.73 639.75 190.73 639.75 195.42"/><polygon class="cls-2" points="679.38 190.73 676.79 190.73 676.79 213.69 682.37 213.69 682.37 204.9 691.26 204.9 691.26 200.24 682.37 200.24 682.37 195.65 692.6 195.65 692.6 190.73 682.37 190.73 679.38 190.73"/><polygon class="cls-2" points="714.98 195.42 718.85 195.42 718.85 209 714.98 209 714.98 213.69 728.33 213.69 728.33 209 724.42 209 724.42 195.42 728.33 195.42 728.33 190.73 714.98 190.73 714.98 195.42"/><path class="cls-2" d="M757.64,197.27a6,6,0,0,1,2-1.34,6.48,6.48,0,0,1,2.48-.48,6.3,6.3,0,0,1,2,.3,6.18,6.18,0,0,1,1.69.83,10.14,10.14,0,0,1,1.46,1.27l3.41-3.91a10.08,10.08,0,0,0-2.35-2,11.12,11.12,0,0,0-2.93-1.27,12.42,12.42,0,0,0-3.22-.42,12.85,12.85,0,0,0-4.83.88,11.65,11.65,0,0,0-3.84,2.48,11.43,11.43,0,0,0-2.55,3.76,12,12,0,0,0-.91,4.72,13.11,13.11,0,0,0,.86,4.81,11,11,0,0,0,2.48,3.77,11.28,11.28,0,0,0,3.79,2.46A12.77,12.77,0,0,0,762,214a13.93,13.93,0,0,0,3.33-.41,13,13,0,0,0,3-1.13,7.64,7.64,0,0,0,2.18-1.64l-2.69-4.27a7.21,7.21,0,0,1-3.18,2,6.59,6.59,0,0,1-2,.3,8.36,8.36,0,0,1-2.81-.46,5.83,5.83,0,0,1-2.14-1.35,6.23,6.23,0,0,1-1.38-2.11,7.3,7.3,0,0,1-.49-2.74,7.5,7.5,0,0,1,.49-2.79A6.18,6.18,0,0,1,757.64,197.27Z"/><path class="cls-2" d="M798.83,190.73l-9.09,23h5.51l1.64-4.39h8.4l1.64,4.39h5.64l-9-23Zm-.37,14.37,1.12-3c.18-.55.36-1.08.56-1.59s.38-1,.54-1.54.29-.93.44-1.39l.43,1.39c.17.55.35,1.09.52,1.62s.35,1,.53,1.48l1.13,3Z"/><polygon class="cls-2" points="830.32 195.65 837.14 195.65 837.14 213.69 842.72 213.69 842.72 195.65 849.71 195.65 849.71 190.73 830.32 190.73 830.32 195.65"/><polygon class="cls-2" points="871.55 195.42 875.43 195.42 875.43 209 871.55 209 871.55 213.69 884.91 213.69 884.91 209 881 209 881 195.42 884.91 195.42 884.91 190.73 871.55 190.73 871.55 195.42"/><path class="cls-2" d="M927.06,193.58a11.37,11.37,0,0,0-3.77-2.49,13.17,13.17,0,0,0-9.52,0,11.28,11.28,0,0,0-6.26,6.26,13.17,13.17,0,0,0,0,9.52,11.28,11.28,0,0,0,6.26,6.26,12.57,12.57,0,0,0,4.79.89,12.41,12.41,0,0,0,4.73-.89,11.37,11.37,0,0,0,3.77-2.49,11.08,11.08,0,0,0,2.48-3.79,13.4,13.4,0,0,0,0-9.5A11.19,11.19,0,0,0,927.06,193.58Zm-2.79,11.19a6.37,6.37,0,0,1-1.29,2.11,5.82,5.82,0,0,1-2,1.4,6.52,6.52,0,0,1-5,0,6.2,6.2,0,0,1-2-1.38,6,6,0,0,1-1.3-2.11,8,8,0,0,1-.44-2.68,7.85,7.85,0,0,1,.44-2.66,6.12,6.12,0,0,1,3.28-3.51,6.52,6.52,0,0,1,5,0,6,6,0,0,1,2,1.4,6.37,6.37,0,0,1,1.29,2.11,7.92,7.92,0,0,1,0,5.32Z"/><path class="cls-2" d="M968.4,190.73v5.67c0,.9,0,1.73,0,2.5s0,1.47.07,2.13.07,1.3.13,1.93.11,1.28.18,1.94c0,.15,0,.32.06.48l-10.76-14.65h-5v23h5.41V206c0-.54,0-1,0-1.49s0-.9,0-1.36-.07-1-.12-1.54-.12-1.22-.2-2l0-.32,10.65,14.34h5v-23Z"/></g></g></svg>