<svg xmlns="http://www.w3.org/2000/svg" viewBox="0 0 1681.12 388.77"><defs><style>.cls-1{fill:#231f20;}</style></defs><title>lvg-black</title><g id="Layer_2" data-name="Layer 2"><g id="Layer_1-2" data-name="Layer 1"><path class="cls-1" d="M181.13,360.14l3.11,4.61c-38,5.56-73.9,28.78-111.85,23.15C39.88,383.07,13,356.14,3.91,324.55S2.16,258.05,19.29,230c19.51-31.93,52-58.65,55.61-95.91,2.17-22.54-7-44.39-12.75-66.3S54.78,20.2,69.4,2.9c1.28-1.52,3-3.06,4.94-2.89,1.55.14,2.79,1.32,3.87,2.45C87.42,12,94.82,25.9,94.82,25.9s2-10.74,3.31-16a9.19,9.19,0,0,1,2-4.35c2.71-2.78,7.73-1.14,10,2s2.89,7.16,4.22,10.81c4.56,12.51,18.21,20,31.5,20.72s26.26-4.18,38.18-10.12c2.59,2.23,2.33,6.3,1.42,9.6-6.08,22.09-29.74,35.62-36.77,57.42-5.68,17.61.71,36.73,8.6,53.47s17.55,33.38,18.73,51.85l-9.11-11.07c5.73,24.25,2.63,53-16.45,69-12.21,10.26-28.64,13.54-43.11,20.26a96.24,96.24,0,0,0-45.07,43.8c15.13-11.73,30.42-23.56,47.74-31.72,28.69-13.52,61.11-16.19,92.73-18.64l-7.8,4.81A165.86,165.86,0,0,1,310.52,333c13.21,15,24,33.63,23.38,53.58-21.24-17.51-45.89-31.5-72.8-37.34S204.89,346.22,181.13,360.14Z"/><path class="cls-1" d="M233.86,81.32H257.8V215h62.34v21.91H233.86Z"/><path class="cls-1" d="M440.74,192.44H357c2.48,16.26,15.13,26.42,32.3,26.42,11.74,0,23.26-5.42,28.68-15.13l19,8.36c-9,18.75-29.14,27.1-48.79,27.1-29.82,0-54.21-21.91-54.21-55.34s24.39-54.65,54.21-54.65S441,150.43,441,183.85C441,186.34,441,190,440.74,192.44ZM418.16,175.5c-2.49-16.49-14-26-30-26-16.26,0-28.69,9.71-31.17,26Z"/><path class="cls-1" d="M450.45,131.46h24.62l30.27,75.89,29.81-75.89H560L516,236.93H494.5Z"/><path class="cls-1" d="M677,192.44h-83.8c2.49,16.26,15.13,26.42,32.3,26.42,11.74,0,23.26-5.42,28.68-15.13l19,8.36c-9,18.75-29.14,27.1-48.79,27.1-29.81,0-54.2-21.91-54.2-55.34s24.39-54.65,54.2-54.65,52.85,21.23,52.85,54.65C677.21,186.34,677.21,190,677,192.44ZM654.4,175.5c-2.49-16.49-14-26-30-26-16.26,0-28.68,9.71-31.17,26Z"/><path class="cls-1" d="M725.09,236.93H701.82V131.46h23.27v24.16c5.42-19,15.58-26.42,28.91-26.42,7.45,0,15.36,1.58,18.74,4.06l-3.83,21.46a34.16,34.16,0,0,0-15.59-3.61c-19.88,0-28.23,19.87-28.23,47.88Z"/><path class="cls-1" d="M871.89,221.8c-7.22,11.52-21.91,17.39-35.46,17.39-28.23,0-53.52-21.45-53.52-55.11s25.29-54.88,53.52-54.88c12.65,0,28.24,5.19,35.46,17.16v-14.9h23V236.93h-23Zm-32.74-5.19c17.16,0,32.52-12,32.52-32.76,0-20.55-16.71-32.07-32.52-32.07-17.4,0-32.3,12.65-32.3,32.07S821.75,216.61,839.15,216.61Z"/><path class="cls-1" d="M974.65,267.87c21.46,0,35.24-12,35.24-41.55V220.9c-5.87,12-21.46,18.29-35.69,18.29-28.46,0-53.3-21.23-53.3-54.66s24.84-55.33,53.3-55.33c14.46,0,29.14,6.32,35.69,17.84V131.46h22.81v89.89c0,48.56-22.58,68.21-58.05,68.21A54,54,0,0,1,925.87,260c4.29-1.81,14.91-7.91,19.2-9.71C950.71,261.33,963.14,267.87,974.65,267.87Zm2.26-116.09c-17.61,0-32.07,13.33-32.07,32.53,0,19.87,14.46,32.52,32.07,32.52,15.81,0,32.53-11.74,32.53-32.52C1009.44,163.3,994.31,151.78,976.91,151.78Z"/><path class="cls-1" d="M1165.28,192.44h-83.8c2.49,16.26,15.13,26.42,32.3,26.42,11.74,0,23.26-5.42,28.68-15.13l19,8.36c-9,18.75-29.14,27.1-48.79,27.1-29.81,0-54.2-21.91-54.2-55.34s24.39-54.65,54.2-54.65,52.85,21.23,52.85,54.65C1165.5,186.34,1165.5,190,1165.28,192.44Zm-22.59-16.94c-2.49-16.49-14-26-30-26-16.26,0-28.68,9.71-31.17,26Z"/><path class="cls-1" d="M1317.05,215.93a77.25,77.25,0,0,1-55.56,23.26c-44,0-75.44-35.46-75.44-79.73,0-44,31.39-79.95,75.44-79.95a76.72,76.72,0,0,1,55.33,23.26l-10.39,10.39a62.53,62.53,0,0,0-44.94-18.74c-35.91,0-60.53,28.91-60.53,65,0,35.91,24.62,64.82,60.53,64.82a62.34,62.34,0,0,0,45.17-19Z"/><path class="cls-1" d="M1402.87,147.94a39.5,39.5,0,0,0-15.36-3.61c-21.45,0-30.26,25.3-30.26,53.3v39.3h-15.14V131.46h15.14V155.4c5.19-18.07,14.9-26.2,30.26-26.2,7.23,0,15.13,2.26,17.17,4.06Z"/><path class="cls-1" d="M1525.73,236.93H1510.6V218.86c-7.9,13.33-24.39,20.33-39.75,20.33-30,0-54-21.91-54-55.34s23.94-54.65,54-54.65c15.36,0,31.85,6.32,39.75,19.65V131.46h15.13Zm-54.88-12.87c21.68,0,39.75-14,39.75-40.21s-20.78-39.52-39.75-39.52c-21.91,0-38.85,15.36-38.85,39.52C1432,207.35,1448.94,224.06,1470.85,224.06Z"/><path class="cls-1" d="M1619.24,88.54h-11.3c-20.32,0-21.68,16.72-21.68,30.72v12.2h26V145h-26v91.92h-15.13V145h-20.55V131.46h20.55v-12.2c0-25.3,8.81-44.95,36.81-44.95h11.3Z"/><path class="cls-1" d="M1643.63,236.93V145h-19V131.46h19V91.93h15.13v39.53h22.36V145h-22.36v91.92Z"/></g></g></svg>