<svg xmlns="http://www.w3.org/2000/svg" width="159" height="40" viewBox="0 0 159 40" fill="none"><path d="M58.7618 20.0001C58.7618 18.6679 58.5094 17.42 58.0214 16.2396C57.5334 15.076 56.8435 14.0473 55.9853 13.1704C55.1103 12.2935 54.1007 11.6021 52.9565 11.1131C51.8123 10.624 50.5671 10.3711 49.2378 10.3711C47.9085 10.3711 46.6633 10.624 45.519 11.1131C44.3748 11.6021 43.3652 12.2935 42.507 13.1704C41.6489 14.0473 40.9758 15.076 40.4878 16.2227C39.9998 17.3863 39.7474 18.6342 39.7474 19.9664C39.7474 21.2986 39.9998 22.5465 40.4878 23.7269C40.9758 24.8905 41.6657 25.9192 42.5239 26.7961C43.3989 27.6729 44.4085 28.3643 45.5695 28.8703C46.7306 29.3593 47.9758 29.6122 49.3051 29.6122C50.6176 29.6122 51.8459 29.3593 52.9902 28.8703C53.6969 28.5667 54.3531 28.1789 54.9421 27.7404L56.5574 29.3593H58.7786V27.6224L56.9108 25.7505C57.3483 25.1434 57.7353 24.4689 58.0382 23.7438C58.5094 22.5802 58.7618 21.3323 58.7618 20.0001ZM52.8387 25.6493C52.7378 25.7168 52.6536 25.7674 52.5527 25.8348C51.5935 26.4082 50.4998 26.6949 49.2378 26.6949C48.3123 26.6949 47.4541 26.5262 46.6801 26.2058C45.9061 25.8686 45.233 25.4133 44.6609 24.823C44.1056 24.2328 43.6681 23.5246 43.3652 22.6982C43.0623 21.8719 42.8941 20.9613 42.8941 19.9832C42.8941 18.6679 43.1633 17.5043 43.7017 16.5094C44.2402 15.5144 44.9974 14.7387 45.9397 14.1654C46.8988 13.6089 47.9926 13.3222 49.2378 13.3222C50.1801 13.3222 51.0382 13.4908 51.8123 13.8112C52.5863 14.1316 53.2594 14.5869 53.8315 15.194C54.4036 15.7842 54.8411 16.4925 55.144 17.302C55.4469 18.1114 55.6151 19.0052 55.6151 19.9832C55.6151 21.2986 55.3459 22.4622 54.8075 23.474C54.7906 23.5077 54.757 23.5583 54.7401 23.592C54.2522 24.4183 53.6128 25.1097 52.8387 25.6493Z" fill="white"></path><path d="M73.1824 20.742C74.0742 20.3036 74.7641 19.6797 75.2521 18.8702C75.7401 18.0608 75.9925 17.1164 75.9925 16.0372C75.9925 15.0085 75.7401 14.081 75.2521 13.2716C74.7641 12.4621 74.0742 11.8213 73.1824 11.3491C72.2906 10.877 71.2642 10.6409 70.0863 10.6409H64.3147H63.3556H61.2522V29.3424H64.3147V13.3222H69.9517C70.894 13.3222 71.6175 13.592 72.1392 14.1316C72.6608 14.6712 72.9132 15.3289 72.9132 16.1046C72.9132 16.9815 72.644 17.656 72.1223 18.1451C71.6007 18.6341 70.8603 18.8871 69.918 18.8871H66.8051V21.4166H66.9565L73.3339 29.3593H77.204L70.6584 21.3997C71.6007 21.3323 72.442 21.113 73.1824 20.742Z" fill="white"></path><path d="M90.7327 10.6409L83.0597 29.3424H86.3073L87.7376 25.7336H95.764L97.1942 29.3424H100.509L92.8697 10.6409H90.7327ZM88.7976 23.0692L91.7592 15.6156L94.7039 23.0692H88.7976Z" fill="white"></path><path d="M113.483 24.6206L110.538 16.5261H108.838L105.911 24.6206L102.899 16.5261H99.8529L105.002 29.3592H106.701L109.697 21.7032L112.675 29.3592H114.391L119.54 16.5261H116.495L113.483 24.6206Z" fill="white"></path><path d="M130.326 17.9595C129.956 17.5379 129.519 17.167 129.014 16.8971C128.257 16.4756 127.398 16.2732 126.406 16.2732C125.245 16.2732 124.201 16.5767 123.276 17.167C122.35 17.7572 121.61 18.5666 121.055 19.5784C120.516 20.5902 120.247 21.7201 120.247 22.9848C120.247 24.2327 120.516 25.3626 121.055 26.3744C121.593 27.3862 122.334 28.1788 123.276 28.769C124.201 29.3592 125.261 29.6459 126.406 29.6459C127.382 29.6459 128.257 29.4435 129.014 29.0219C129.519 28.7353 129.956 28.398 130.326 27.9764V29.3761H133.254V16.5261H130.326V17.9595ZM129.519 25.7504C128.846 26.4756 127.971 26.8465 126.894 26.8465C126.187 26.8465 125.548 26.6779 125.009 26.3575C124.471 26.0202 124.033 25.5649 123.73 24.9747C123.427 24.3845 123.259 23.71 123.259 22.9511C123.259 22.1922 123.411 21.5008 123.73 20.9275C124.033 20.3373 124.471 19.882 125.009 19.5447C125.548 19.2074 126.17 19.0557 126.894 19.0557C127.617 19.0557 128.257 19.2243 128.795 19.5447C129.334 19.882 129.754 20.3373 130.057 20.9275C130.36 21.5177 130.511 22.1922 130.511 22.9511C130.528 24.081 130.192 25.0084 129.519 25.7504Z" fill="white"></path><path d="M144.528 16.6105C144.007 16.3744 143.434 16.2563 142.795 16.2563C141.331 16.2563 140.254 16.7622 139.531 17.7741C139.514 17.8078 139.48 17.8415 139.463 17.8752V16.5262H136.535V29.3592H139.463V22.226C139.463 21.113 139.733 20.3036 140.271 19.7977C140.809 19.2749 141.482 19.0219 142.29 19.0219C142.66 19.0219 142.997 19.0725 143.283 19.1906C143.569 19.2918 143.821 19.4773 144.057 19.7302L145.975 17.7572C145.521 17.2176 145.033 16.8297 144.528 16.6105Z" fill="white"></path><path d="M158.107 19.3592C157.586 18.398 156.862 17.6391 155.954 17.0827C155.045 16.5262 153.985 16.2563 152.79 16.2563C151.562 16.2563 150.451 16.543 149.442 17.1332C148.432 17.7235 147.641 18.516 147.052 19.5278C146.463 20.5397 146.177 21.6695 146.177 22.9343C146.177 24.199 146.48 25.3457 147.069 26.3575C147.658 27.3693 148.466 28.1788 149.492 28.7521C150.519 29.3255 151.663 29.629 152.942 29.629C153.934 29.629 154.877 29.4435 155.769 29.0725C156.66 28.7015 157.418 28.1451 158.04 27.4199L156.172 25.5144C155.785 25.9528 155.297 26.3069 154.742 26.5262C154.187 26.7623 153.581 26.8803 152.908 26.8803C152.151 26.8803 151.461 26.7117 150.889 26.3913C150.3 26.054 149.846 25.5987 149.526 24.9916C149.374 24.7049 149.257 24.3845 149.172 24.0641H158.713C158.764 23.7943 158.814 23.5582 158.831 23.3221C158.865 23.1029 158.865 22.8837 158.865 22.6644C158.898 21.4165 158.629 20.3204 158.107 19.3592ZM149.509 20.7926C149.812 20.2192 150.233 19.7639 150.788 19.4435C151.343 19.1231 151.983 18.9545 152.74 18.9545C153.446 18.9545 154.052 19.0894 154.54 19.3761C155.028 19.6628 155.415 20.0675 155.668 20.6071C155.819 20.9106 155.92 21.2479 156.004 21.6189H149.189C149.273 21.3322 149.374 21.0456 149.509 20.7926Z" fill="white"></path><path d="M34.7474 34.8229C34.1248 35.6492 33.4518 36.425 32.7282 37.1501C31.6681 38.2125 30.5071 39.1568 29.245 39.9831L18.9638 36.2563L20.0744 35.1433C16.4566 31.5177 12.8389 27.8921 9.23793 24.2833C8.34611 25.1771 7.43746 26.0877 6.54564 26.9646L17.3821 37.8246L14.9422 36.2563L5.5192 40C3.39902 38.6003 1.51442 36.8465 0 34.8229L4.50959 25.7841L2.82691 23.2546C3.09614 23.5245 5.31728 25.7504 5.58651 26.0202C9.20428 22.3946 12.8221 18.769 16.4398 15.1433C15.548 14.2496 14.6562 13.3558 13.7644 12.4621C12.0312 14.199 10.2812 15.9528 8.54803 17.6897L17.3653 0L25.3076 15.9022L28.2186 19.6796C25.2907 16.7454 20.3268 11.7538 17.3821 8.81956L14.6898 11.5177C18.2908 15.1265 21.9085 18.7521 25.5263 22.3777L27.5455 20.3541L27.7306 20.7251L28.185 21.6358C24.9037 24.9241 21.6225 28.2125 18.3413 31.5008C19.2331 32.3946 20.1249 33.2884 20.9999 34.1653C23.9782 31.1804 28.858 26.2901 31.8364 23.3052L30.2378 25.7841L34.7474 34.8229Z" fill="#03F67F"></path></svg>