<svg width="156" height="42" viewBox="0 0 156 42" fill="none" xmlns="http://www.w3.org/2000/svg">
<g clip-path="url(#clip0_3_49)">
<path d="M1.26811 9.4496C1.88295 9.15873 2.66805 9.19125 3.62342 9.54715C4.66405 9.95893 5.61328 10.5719 6.41679 11.3509C7.48094 12.3547 8.22584 12.8401 8.6515 12.807C9.07715 12.7739 9.8055 12.1573 10.8365 10.9571C12.6834 8.78746 14.7071 8.47945 16.9075 10.0331C17.2406 10.2519 17.5503 10.5044 17.8315 10.7869C18.0156 10.9816 18.1565 11.2131 18.2448 11.4662C18.3246 11.7091 18.2607 12.0177 18.0497 12.3902C17.8386 12.7626 17.5797 13.167 17.2728 13.6033C16.966 14.0396 16.5031 14.6479 15.8877 15.4301L13.3621 18.486L17.2037 21.9817C19.7292 24.3795 20.992 25.7558 20.992 26.1106C20.992 26.4357 20.4741 26.9376 19.4384 27.6163C18.7289 27.971 18.1703 28.1171 17.7623 28.0544C17.3544 27.9917 16.7295 27.6677 15.8877 27.0825C14.4322 25.9817 13.3964 25.0588 12.7804 24.3139C11.9385 23.407 11.2581 22.9861 10.739 23.0511C10.2199 23.1162 9.28111 23.7476 7.92256 24.9453C6.46468 26.2081 5.08011 26.8637 3.76885 26.9122C2.45759 26.9607 1.41354 26.3849 0.636717 25.1847C0.247714 24.603 0.0354759 24.159 4.46336e-06 23.8528C-0.0319199 23.5442 0.0886831 23.2054 0.363587 22.833C0.638491 22.4605 1.26279 21.7564 2.23471 20.7189C4.1147 18.7774 5.05528 17.6607 5.05646 17.3686C5.05646 17.0435 4.27964 15.9427 2.72599 14.0662C1.49394 12.6403 0.762641 11.5791 0.532077 10.8826C0.301512 10.1862 0.546856 9.70854 1.26811 9.4496Z" fill="#1A1A1A"/>
<path d="M28.3772 8.28435C30.3006 6.99533 32.5472 6.27207 34.8614 6.19686C37.1446 6.13183 38.966 6.69819 40.3258 7.89594C41.131 8.54389 41.5821 9.03812 41.679 9.37865C41.7766 9.7174 41.6453 10.1147 41.2906 10.5669C41.0636 10.859 40.6746 11.1102 40.1236 11.3207C39.6154 11.5231 39.0743 11.6301 38.5274 11.6364C36.9415 11.6196 35.3645 11.8746 33.8647 12.3902C32.4363 12.8915 31.3166 13.5714 30.5055 14.4298C29.7201 15.2441 29.1592 16.2481 28.8774 17.3438C28.6019 18.4292 28.7556 19.5525 29.3385 20.7136C29.5302 21.1636 29.8018 21.5752 30.1402 21.9285C30.4365 22.1987 30.7955 22.3907 31.1848 22.4871C31.8074 22.6304 32.4411 22.72 33.079 22.7549C35.4106 22.8507 36.9329 23.4171 37.6459 24.454C38.2619 25.329 37.922 26.1224 36.6261 26.8342C36.522 26.9022 36.4067 26.9514 36.2856 26.9796C35.1848 27.4998 33.4443 27.5974 31.0642 27.2722C28.684 26.9471 27.0246 26.415 26.0858 25.676C25.0819 24.8342 24.136 23.6358 23.248 22.081C22.3601 20.5262 21.9143 19.2959 21.9108 18.3902C21.9108 16.9004 22.5912 15.0949 23.9522 12.9737C25.3131 10.8525 26.7881 9.28938 28.3772 8.28435Z" fill="#1A1A1A"/>
<path d="M49.4029 8.91575C49.8955 8.57479 50.4151 8.27465 50.9566 8.01833C51.4745 7.77594 51.7984 7.65415 51.9285 7.65297C52.4464 7.65297 53.1345 7.84747 53.9929 8.23647C54.8572 8.62942 55.6791 9.10959 56.4458 9.66952C57.2226 10.2371 57.7547 10.7632 58.042 11.248C58.6024 12.026 58.8638 12.6089 58.8259 12.9967C58.7881 13.3846 58.4334 14.1454 57.7618 15.2793C56.9359 16.616 55.9033 17.8133 54.7024 18.8265C53.5365 19.7984 52.5315 20.2844 51.6873 20.2844C50.4245 20.2844 49.8256 20.7213 49.8906 21.595C49.9545 22.5031 50.5859 23.313 51.7848 24.0248C52.3689 24.3155 52.9892 24.5267 53.6293 24.6527C55.4419 25.0405 56.6722 25.4289 57.3202 25.8179C57.7724 26.013 58.0473 26.1726 58.1449 26.3287C58.2424 26.4848 58.2016 26.6604 58.0243 26.8874C57.646 27.2971 57.2304 27.6705 56.7828 28.003C55.6157 29.008 54.5877 29.4939 53.6985 29.4608C52.8094 29.4277 51.2468 28.8448 49.011 27.7121C48.2173 27.3254 47.4543 26.879 46.7284 26.3766C46.1422 25.9629 45.6065 25.4819 45.1322 24.9435C44.6311 24.3586 44.1913 23.7239 43.8197 23.0494C43.1398 21.7215 42.7597 20.7579 42.6793 20.1584C42.5989 19.559 42.7686 18.5474 43.1883 17.1239C43.6506 15.4223 44.4325 13.8243 45.4922 12.415C46.5397 10.9906 47.8713 9.79911 49.4029 8.91575Z" fill="#1A1A1A"/>
<path d="M66.509 8.23648C67.6406 7.52705 68.7579 7.21904 69.8611 7.31244C70.9642 7.40585 72.3074 7.90837 73.8906 8.81998C75.3166 9.69495 76.2802 10.577 76.7816 11.4662C77.2829 12.3553 77.2746 13.157 76.7567 13.8711C76.3027 14.4871 75.9226 14.7946 75.6163 14.7934C75.3101 14.7922 74.5735 14.5173 73.4065 13.9687C71.7511 13.2238 70.7307 12.9967 70.3453 13.2876C69.8274 13.5785 69.5909 14.0402 69.6358 14.6728C69.6855 15.3042 69.9675 15.6199 70.4854 15.6199C71.1014 15.6199 72.3163 16.2838 74.1301 17.6116C75.3278 18.4866 76.0964 19.1907 76.4357 19.7239C76.7751 20.2572 76.9453 21.0582 76.9465 22.1271C76.9465 24.0071 76.4363 25.6181 75.4159 26.9601C74.4744 28.2469 73.1608 29.2138 71.6524 29.7304C70.1626 30.2329 68.5108 30.292 66.697 29.9078C64.84 29.4948 63.1287 28.5886 61.7434 27.2847C60.7396 26.3388 60.1242 25.6506 59.8971 25.2202C59.6701 24.7898 59.7186 24.3121 60.0426 23.7872C60.5605 22.9122 61.3946 22.4393 62.5451 22.3683C63.6955 22.2974 64.5439 22.687 65.0902 23.5371C65.608 24.4109 66.5717 24.8886 67.9811 24.9701C69.3905 25.0517 70.2406 24.6876 70.5315 23.8776C70.9832 22.7106 71.0801 21.8362 70.8224 21.2545C70.5646 20.6728 69.9007 20.2513 68.8306 19.9899C67.7987 19.7836 66.8224 19.3604 65.9663 18.7484C65.1009 18.1607 64.3582 17.4101 63.7795 16.5386C63.2297 15.6967 62.9542 14.8691 62.953 14.0556C62.953 12.755 63.2285 11.6618 63.7795 10.7762C64.3305 9.89063 65.2403 9.04404 66.509 8.23648Z" fill="#1A1A1A"/>
<path d="M84.8124 8.23648C85.9439 7.52705 87.0607 7.21904 88.1626 7.31244C89.2646 7.40585 90.6084 7.90837 92.194 8.81998C93.6199 9.69495 94.5836 10.577 95.0849 11.4662C95.5862 12.3553 95.5791 13.157 95.0636 13.8711C94.6096 14.4871 94.2294 14.7946 93.9232 14.7934C93.617 14.7922 92.8803 14.5173 91.7133 13.9687C90.058 13.2238 89.0376 12.9967 88.6521 13.2876C88.1343 13.5785 87.8978 14.0402 87.9427 14.6728C87.9876 15.3054 88.2708 15.621 88.7923 15.6199C89.4083 15.6199 90.6232 16.2838 92.4369 17.6116C93.6347 18.4866 94.4033 19.1907 94.7426 19.7239C95.0819 20.2572 95.2522 21.0582 95.2534 22.1271C95.2534 24.0071 94.7432 25.6181 93.7228 26.9601C92.7813 28.2469 91.4677 29.2138 89.9593 29.7304C88.4695 30.2329 86.8177 30.292 85.0039 29.9078C83.1465 29.4944 81.4347 28.5883 80.0485 27.2847C79.0447 26.3388 78.4299 25.6506 78.204 25.2202C77.9782 24.7898 78.0267 24.3121 78.3495 23.7872C78.8673 22.9122 79.7009 22.4393 80.8502 22.3683C81.9995 22.2974 82.8496 22.6864 83.4006 23.5353C83.9185 24.4091 84.8821 24.8868 86.2915 24.9684C87.7009 25.05 88.5511 24.6858 88.8419 23.8758C89.2936 22.7088 89.3905 21.8345 89.1328 21.2527C88.875 20.671 88.2111 20.2495 87.1411 19.9882C86.1087 19.7815 85.1319 19.3584 84.275 18.7467C83.4105 18.1584 82.6684 17.4079 82.0899 16.5368C81.5377 15.6949 81.2623 14.8673 81.2634 14.0538C81.2634 12.7532 81.5389 11.6601 82.0899 10.7745C82.6409 9.88886 83.5484 9.04286 84.8124 8.23648Z" fill="#1A1A1A"/>
<path d="M99.627 11.5389C99.9498 10.9891 100.759 10.8028 102.055 10.9802C103.351 11.1575 104.257 11.5867 104.774 12.2678C105.164 12.8826 105.327 13.6512 105.262 14.5734C105.197 15.4957 104.856 17.4632 104.24 20.4759C103.268 25.0092 102.618 27.6642 102.289 28.441C101.934 29.1859 101.14 29.5495 99.909 29.5335C98.6781 29.5176 97.7239 29.138 97.0429 28.3914C96.6998 28.0318 96.4788 27.5731 96.4115 27.0807C96.3465 26.5947 96.3949 25.8664 96.5569 24.8956C96.7189 23.9249 97.0736 22.1921 97.6211 19.6973C98.6663 14.7762 99.3349 12.0567 99.627 11.5389ZM100.452 0.124138C101.229 -0.0685906 102.174 -0.0360751 103.289 0.221684C104.404 0.479444 105.222 0.868448 105.742 1.3887C106.26 1.9385 106.319 2.67454 105.92 3.5968C105.52 4.51905 104.929 4.98077 104.146 4.98196C102.623 4.98196 101.295 4.35056 100.163 3.08778C99.1588 1.98816 98.9814 1.12975 99.6305 0.51255C99.8811 0.338919 100.159 0.207696 100.452 0.124138Z" fill="#1A1A1A"/>
<path d="M110.166 8.81997C110.847 8.36594 111.664 8.21991 112.618 8.3819C113.573 8.54389 114.293 8.96482 114.78 9.64469C115.168 10.2238 115.348 10.9171 115.291 11.6116C115.241 12.3399 114.958 13.8055 114.44 16.0083C113.89 18.1768 113.558 19.812 113.445 20.914C113.331 22.016 113.412 22.8011 113.686 23.2693C113.96 23.7422 114.47 24.0254 115.215 24.1188C115.924 24.185 116.467 24.0721 116.843 23.7801C117.219 23.488 117.633 22.8566 118.085 21.8859C118.41 21.2048 118.734 20.1927 119.056 18.8495C119.365 17.5966 119.576 16.3218 119.688 15.0363C119.772 13.9577 119.934 12.8866 120.174 11.8315C120.398 10.8596 120.593 10.3275 120.757 10.2353C121.275 9.88057 122.166 9.96984 123.428 10.5031C124.691 11.0364 125.532 11.6737 125.952 12.415C126.405 13.2261 126.567 14.3494 126.438 15.7848C126.294 17.2881 126.002 18.7734 125.564 20.2187C125.098 21.7696 124.454 23.2611 123.645 24.6633C122.817 26.1058 121.934 27.2149 120.997 27.9905C120.124 28.7372 119.377 29.1895 118.764 29.3509C118.15 29.5123 117.127 29.4963 115.703 29.303C113.404 28.9778 111.899 28.5569 111.187 28.0402C110.015 27.3686 109.035 26.2394 108.246 24.6527C107.458 23.0659 107.078 21.5436 107.106 20.0857C107.17 18.402 107.584 16.1921 108.348 13.4561C109.111 10.7201 109.717 9.17469 110.166 8.81997Z" fill="#1A1A1A"/>
<path d="M145.382 9.83978C146.222 9.22494 146.975 8.83652 147.639 8.67454C148.414 8.50849 149.214 8.49163 149.995 8.62488C152.293 8.97959 153.889 9.9592 154.783 11.5637C155.677 13.1682 156.057 15.702 155.924 19.1652C155.86 21.7558 155.568 23.5773 155.049 24.6296C154.53 25.6819 153.737 26.0786 152.669 25.8197C152.075 25.6374 151.523 25.3403 151.043 24.9453C150.568 24.5507 150.179 24.063 149.901 23.5123C149.593 22.8937 149.389 22.2295 149.294 21.5454C149.18 20.7566 149.173 19.9561 149.271 19.1652C149.465 17.4484 149.432 16.59 149.173 16.59C148.819 16.59 147.799 18.3228 146.114 21.7883C144.849 24.444 143.732 26.055 142.762 26.6213C141.792 27.1877 140.708 26.872 139.508 25.6742C138.955 25.1233 138.639 24.6131 138.559 24.1437C138.478 23.6742 138.568 22.8891 138.826 21.7883C139.247 20.133 139.458 18.7567 139.458 17.6595C139.458 16.3967 139.103 16.1862 138.394 17.0281C137.713 17.8368 136.935 19.3266 136.061 21.4975C135.026 24.1188 134.07 26.0106 133.195 27.1729C132.32 28.3352 131.414 28.9181 130.476 28.9217C129.982 28.9111 129.498 28.777 129.068 28.5315C128.493 28.253 128.019 27.8009 127.714 27.239C127.409 26.6772 127.288 26.0337 127.367 25.3993C127.431 24.5421 127.82 22.7685 128.533 20.0786C129.635 15.8043 130.285 13.1333 130.484 12.0656C130.644 11.2864 130.887 10.7922 131.213 10.5829C131.538 10.3736 132.247 10.2684 133.341 10.2672C134.933 10.3191 136.526 10.2218 138.099 9.97634C139.654 9.68548 140.852 9.84746 141.694 10.4623C142.277 10.8832 142.763 11.0606 143.152 10.9944C143.541 10.9282 144.284 10.5433 145.382 9.83978Z" fill="#1A1A1A"/>
<path d="M78.0852 39.4478V32.4972H79.0784V35.5921C79.3586 35.099 79.9457 34.849 80.5913 34.849C81.8168 34.849 82.8384 35.7552 82.8384 37.2007C82.8384 38.6196 81.7867 39.5436 80.5824 39.5436C79.9652 39.5436 79.3586 39.2829 79.0784 38.7916V39.4478H78.0852ZM80.4671 38.5806C80.6495 38.5829 80.8304 38.548 80.9989 38.4781C81.1673 38.4082 81.3198 38.3047 81.4469 38.1739C81.574 38.0431 81.6732 37.8878 81.7383 37.7174C81.8034 37.5471 81.8332 37.3652 81.8257 37.183C81.8328 37.0022 81.8027 36.8218 81.7371 36.6532C81.6715 36.4845 81.5718 36.3312 81.4444 36.2027C81.3169 36.0743 81.1644 35.9734 80.9962 35.9065C80.8281 35.8396 80.648 35.808 80.4671 35.8138C80.1002 35.8138 79.7483 35.9595 79.4889 36.219C79.2295 36.4784 79.0837 36.8303 79.0837 37.1972C79.0837 37.5641 79.2295 37.9159 79.4889 38.1754C79.7483 38.4348 80.1002 38.5806 80.4671 38.5806Z" fill="#1A1A1A"/>
<path d="M85.2291 41.6453H84.188L85.1617 39.235L83.3774 34.9394H84.4416L85.6955 38.0254L86.9583 34.9394H88.0224L85.2291 41.6453Z" fill="#1A1A1A"/>
<path d="M91.0233 32.6586H92.0875V38.6639H94.8862V39.6464H91.0233V32.6586Z" fill="#1A1A1A"/>
<path d="M100.305 37.6441H96.5445C96.6563 38.3731 97.2238 38.8289 97.9936 38.8289C98.2489 38.8382 98.5021 38.7804 98.7281 38.6612C98.954 38.542 99.1448 38.3656 99.2812 38.1496L100.131 38.5238C99.7263 39.3663 98.8254 39.7405 97.9439 39.7405C96.6048 39.7405 95.5123 38.7579 95.5123 37.2575C95.5123 35.757 96.6048 34.8064 97.9439 34.8064C99.2829 34.8064 100.313 35.7588 100.313 37.2575C100.313 37.3692 100.313 37.5324 100.305 37.6441ZM99.29 36.8903C99.2598 36.5598 99.1027 36.2538 98.8517 36.0365C98.6007 35.8193 98.2754 35.7077 97.9439 35.7251C97.6065 35.7063 97.2745 35.816 97.0148 36.0323C96.7552 36.2485 96.5871 36.5551 96.5445 36.8903H99.29Z" fill="#1A1A1A"/>
<path d="M100.739 34.9075H101.844L103.201 38.3127L104.538 34.9075H105.654L103.678 39.6394H102.715L100.739 34.9075Z" fill="#1A1A1A"/>
<path d="M110.902 37.6441H107.142C107.253 38.3731 107.821 38.8289 108.591 38.8289C108.846 38.8382 109.099 38.7804 109.325 38.6612C109.551 38.542 109.742 38.3656 109.878 38.1496L110.73 38.5238C110.316 39.3734 109.43 39.7405 108.543 39.7405C107.206 39.7405 106.111 38.7579 106.111 37.2575C106.111 35.757 107.206 34.8064 108.543 34.8064C109.88 34.8064 110.912 35.7588 110.912 37.2575C110.91 37.3692 110.91 37.5324 110.902 37.6441ZM109.887 36.8903C109.857 36.5596 109.7 36.2534 109.449 36.036C109.198 35.8187 108.873 35.7072 108.541 35.7251C108.204 35.7063 107.872 35.816 107.612 36.0323C107.352 36.2485 107.184 36.5551 107.142 36.8903H109.887Z" fill="#1A1A1A"/>
<path d="M113.058 39.6394H112.015V34.9075H113.058V35.9911C113.303 35.1398 113.759 34.8064 114.357 34.8064C114.647 34.7912 114.937 34.8523 115.197 34.9837L115.02 35.945C114.803 35.837 114.563 35.7817 114.321 35.7836C113.434 35.7836 113.053 36.6704 113.053 37.9314L113.058 39.6394Z" fill="#1A1A1A"/>
<path d="M119.645 38.9601C119.321 39.478 118.661 39.7405 118.049 39.7405C116.783 39.7405 115.648 38.7774 115.648 37.2681C115.636 36.9468 115.69 36.6265 115.806 36.3266C115.922 36.0267 116.097 35.7534 116.321 35.5233C116.546 35.2932 116.815 35.111 117.112 34.9877C117.409 34.8645 117.728 34.8028 118.049 34.8064C118.617 34.8064 119.315 35.0387 119.645 35.5761V34.9075H120.678V39.6394H119.645V38.9601ZM118.175 38.7278C118.369 38.7335 118.562 38.6993 118.743 38.6273C118.923 38.5553 119.087 38.447 119.224 38.3092C119.36 38.1713 119.468 38.0069 119.538 37.826C119.609 37.6451 119.642 37.4516 119.635 37.2575C119.637 37.066 119.601 36.876 119.529 36.6989C119.456 36.5217 119.348 36.3611 119.212 36.2267C119.075 36.0924 118.913 35.987 118.735 35.9169C118.557 35.8468 118.366 35.8136 118.175 35.8191C117.984 35.8135 117.794 35.8468 117.616 35.917C117.439 35.9872 117.277 36.0928 117.142 36.2273C117.006 36.3618 116.899 36.5225 116.828 36.6996C116.757 36.8767 116.722 37.0665 116.726 37.2575C116.721 37.4501 116.755 37.6416 116.826 37.8208C116.897 37.9999 117.003 38.163 117.138 38.3002C117.274 38.4374 117.435 38.546 117.613 38.6194C117.791 38.6929 117.982 38.7297 118.175 38.7278Z" fill="#1A1A1A"/>
<path d="M124.255 41.0263C125.216 41.0263 125.835 40.4942 125.835 39.1623V38.9193C125.571 39.4514 124.872 39.7405 124.239 39.7405C122.962 39.7405 121.848 38.7881 121.848 37.2894C121.848 35.7907 122.962 34.8064 124.239 34.8064C124.888 34.8064 125.546 35.0902 125.835 35.6063V34.9075H126.858V38.9406C126.858 41.1185 125.846 42 124.255 42C123.803 42.005 123.358 41.8834 122.971 41.649C122.584 41.4146 122.271 41.0766 122.066 40.6734C122.258 40.5918 122.735 40.3187 122.926 40.2371C123.057 40.4753 123.249 40.6741 123.483 40.8129C123.717 40.9516 123.983 41.0254 124.255 41.0263ZM124.356 35.8191C124.164 35.8164 123.974 35.8525 123.797 35.9251C123.62 35.9978 123.46 36.1056 123.325 36.2419C123.191 36.3783 123.085 36.5405 123.015 36.7187C122.945 36.8969 122.912 37.0874 122.917 37.2788C122.909 37.4708 122.94 37.6625 123.009 37.8419C123.079 38.0212 123.184 38.1844 123.319 38.3213C123.454 38.4581 123.616 38.5656 123.794 38.6371C123.972 38.7085 124.164 38.7424 124.356 38.7366C124.548 38.7395 124.739 38.7038 124.917 38.6315C125.095 38.5593 125.257 38.452 125.393 38.316C125.529 38.1801 125.636 38.0182 125.709 37.84C125.781 37.6619 125.817 37.471 125.814 37.2788C125.822 37.0853 125.79 36.8921 125.72 36.7116C125.65 36.5311 125.543 36.3673 125.406 36.2306C125.268 36.0939 125.104 35.9873 124.923 35.9177C124.743 35.848 124.549 35.8169 124.356 35.8262V35.8191Z" fill="#1A1A1A"/>
<path d="M132.805 37.6441H129.047C129.157 38.373 129.725 38.8288 130.494 38.8288C130.749 38.8374 131.001 38.7792 131.226 38.6601C131.451 38.5409 131.641 38.3649 131.777 38.1496L132.628 38.5238C132.222 39.3662 131.321 39.7404 130.44 39.7404C129.102 39.7404 128.008 38.7579 128.008 37.2574C128.008 35.757 129.102 34.8064 130.44 34.8064C131.777 34.8064 132.811 35.7588 132.811 37.2574C132.816 37.3692 132.816 37.5323 132.805 37.6441ZM131.793 36.8903C131.762 36.5594 131.605 36.2532 131.354 36.0359C131.102 35.8186 130.777 35.7072 130.445 35.7251C130.108 35.7063 129.776 35.8161 129.516 36.0323C129.257 36.2486 129.089 36.5552 129.047 36.8903H131.793Z" fill="#1A1A1A"/>
<path d="M139.614 38.6976C139.289 39.0294 138.901 39.2927 138.473 39.4719C138.045 39.651 137.585 39.7423 137.121 39.7404C135.145 39.7404 133.737 38.1442 133.737 36.1631C133.737 34.182 135.145 32.577 137.121 32.577C137.583 32.575 138.042 32.6665 138.469 32.846C138.895 33.0255 139.281 33.2893 139.604 33.6216L139.137 34.0863C138.874 33.8185 138.56 33.6061 138.214 33.4617C137.868 33.3173 137.496 33.2439 137.121 33.2456C135.51 33.2456 134.405 34.5421 134.405 36.1631C134.405 37.7842 135.51 39.0718 137.121 39.0718C137.498 39.0741 137.873 38.9999 138.221 38.8535C138.57 38.7072 138.885 38.4919 139.148 38.2205L139.614 38.6976Z" fill="#1A1A1A"/>
<path d="M143.463 35.6488C143.247 35.549 143.013 35.494 142.775 35.4874C141.812 35.4874 141.416 36.6225 141.416 37.8782V39.6411H140.739V34.9074H141.416V35.9822C141.65 35.1717 142.085 34.8063 142.775 34.8063C143.042 34.797 143.308 34.8582 143.544 34.9837L143.463 35.6488Z" fill="#1A1A1A"/>
<path d="M148.98 39.6394H148.301V38.8288C147.946 39.4265 147.207 39.7404 146.528 39.7404C145.18 39.7404 144.107 38.7579 144.107 37.2574C144.107 35.757 145.171 34.8064 146.528 34.8064C147.216 34.8064 147.946 35.0901 148.301 35.6932V34.9128H148.98V39.6394ZM146.519 39.0612C147.491 39.0612 148.292 38.4333 148.292 37.2574C148.292 36.0816 147.361 35.4839 146.519 35.4839C145.536 35.4839 144.775 36.172 144.775 37.2574C144.77 38.3092 145.531 39.0612 146.513 39.0612H146.519Z" fill="#1A1A1A"/>
<path d="M153.17 32.9884H152.662C151.751 32.9884 151.691 33.7369 151.691 34.3665V34.9128H152.856V35.5211H151.691V39.6393H151.011V35.5158H150.089V34.9075H151.011V34.3612C151.011 33.2261 151.407 32.3446 152.662 32.3446H153.17V32.9884Z" fill="#1A1A1A"/>
<path d="M154.264 39.6393V35.5158H153.414V34.9075H154.266V33.1339H154.945V34.9075H155.947V35.5158H154.945V39.6393H154.264Z" fill="#1A1A1A"/>
</g>
<defs>
<clipPath id="clip0_3_49">
<rect width="155.945" height="42" fill="white"/>
</clipPath>
</defs>
</svg>
